<?xml version="1.0" encoding="UTF-8"?>
<svg id="Layer_2" data-name="Layer 2" xmlns="http://www.w3.org/2000/svg" viewBox="0 0 537.31 311.11">
  <defs>
    <style>
      .cls-1 {
        fill: #62bb46;
      }

      .cls-1, .cls-2 {
        stroke: #241f20;
        stroke-miterlimit: 10;
      }

      .cls-3 {
        fill: #1b9bd7;
      }

      .cls-4 {
        fill: #f5ea00;
      }

      .cls-2 {
        fill: #e80e70;
      }

      .cls-5 {
        fill: #241f20;
      }
    </style>
  </defs>
  <g id="Layer_1-2" data-name="Layer 1">
    <g>
      <g>
        <g>
          <polygon class="cls-3" points="106.22 295.6 106.22 102.22 92.04 102.22 92.04 87.04 106.22 87.04 106.22 62.95 129.89 62.95 129.89 295.6 106.22 295.6"/>
          <path class="cls-5" d="M129.39,63.45v231.65h-22.68V101.72h-14.17v-14.17h14.17v-24.09h22.68M130.39,62.45h-24.68v24.09h-14.17v16.17h14.17v193.38h24.68V62.45h0Z"/>
        </g>
        <g>
          <polygon class="cls-3" points="21.18 177.34 21.18 125.31 44.86 125.31 44.86 162.16 320.23 162.16 320.23 177.34 21.18 177.34"/>
          <path class="cls-5" d="M44.36,125.81v36.85h275.37v14.17H21.68v-51.02h22.68M45.36,124.81h-24.68v53.02h300.05v-16.17H45.36v-36.85h0Z"/>
        </g>
        <g>
          <path class="cls-3" d="M18.21,120.71c-1.4,0-2.21-.07-2.24-.07l-.46-.04v-15.13h.5c10.93,0,19.13-2.94,24.39-8.75,6.44-7.11,6.42-16.45,6.32-18.6H15.51v-15.17h86.04v15.17h-31.22c-.12,2.34-.11,11.54,6.43,18.65,5.26,5.72,13.44,8.63,24.29,8.63h.5v15.13l-.46.04s-.84.07-2.24.07c-7.56,0-32.42-1.99-40.31-27.1-7.86,25.17-32.76,27.17-40.33,27.17h0Z"/>
          <path class="cls-5" d="M101.05,63.45v14.17h-31.19c-.12,1.39-1.95,28.28,31.19,28.28v14.17s-.8.07-2.2.07c-7.67,0-33.13-2.03-40.32-28.41v.07c-7.2,26.39-32.66,28.41-40.32,28.41-1.39,0-2.2-.07-2.2-.07v-14.17c34.02,0,31.18-28.35,31.18-28.35h-31.18v-14.17h85.04M102.05,62.45H15.01v16.17h31.23c.06,2.75-.29,11.23-6.21,17.77-5.16,5.69-13.24,8.58-24.02,8.58h-1v16.09l.92.08s.86.07,2.28.07c7.51,0,31.89-1.94,40.33-26.08,8.47,24.07,32.8,26.01,40.31,26.01,1.42,0,2.25-.07,2.28-.07l.92-.08v-16.09h-1c-10.71,0-18.75-2.85-23.92-8.47-5.98-6.51-6.36-15.02-6.31-17.81h31.23v-16.17h0Z"/>
        </g>
        <g>
          <g>
            <path class="cls-3" d="M261.88,120.96c-2.8,0-4.53-.31-4.6-.32l-.41-.08v-15.09h.5c30.32,0,30.68-41.6,30.68-42.02v-.5h23.68v.5c0,.42.36,42.02,30.68,42.02h.5v15.09l-.41.08c-.07.01-1.8.32-4.6.32-4.84,0-12.14-.91-19.41-5.25-8.5-5.07-14.75-13.52-18.6-25.1-3.85,11.59-10.11,20.03-18.6,25.1-7.26,4.34-14.56,5.25-19.4,5.25h0Z"/>
            <path class="cls-5" d="M311.22,63.45s0,42.52,31.18,42.52v14.17s-1.73.31-4.51.31c-9.06,0-29.33-3.32-38-31.5-8.67,28.18-28.95,31.5-38.01,31.5-2.79,0-4.51-.31-4.51-.31v-14.17c31.18,0,31.18-42.52,31.18-42.52h22.68M311.22,62.45h-23.68v1c0,.1-.05,10.62-3.85,20.96-5.02,13.64-13.87,20.56-26.33,20.56h-1v16.01l.82.15c.07.01,1.85.33,4.69.33,4.91,0,12.3-.92,19.66-5.32,8.26-4.93,14.42-13,18.34-24,3.92,11,10.08,19.06,18.34,24,7.36,4.4,14.76,5.32,19.66,5.32,2.85,0,4.62-.32,4.69-.33l.82-.15v-16.01h-1c-12.45,0-21.31-6.92-26.33-20.56-3.8-10.34-3.85-20.86-3.85-20.96v-1s-1,0-1,0h0Z"/>
          </g>
          <g>
            <path class="cls-3" d="M319.73,177.34c-15.45,0-26.96-1.35-35.18-4.13-13.58-4.59-22.02-12.98-22.02-21.89s8.44-17.29,22.02-21.88c8.22-2.78,19.72-4.13,35.18-4.13,11.37,0,20.49.72,27.85,2.21V.5h23.68v86.54h36.33v15.17h-36.33v36.82c3.71,3.8,5.67,8.05,5.67,12.29,0,8.91-8.44,17.3-22.02,21.89-8.22,2.78-19.72,4.13-35.18,4.13ZM319.73,140.49c-6.01,0-13.59.18-18.9,1.57-7.16,1.87-11.78,5.51-11.78,9.27s4.62,7.4,11.78,9.27c5.31,1.39,12.89,1.57,18.9,1.57,8.57,0,14.55-.52,18.82-1.64,7.21-1.88,11.86-5.5,11.86-9.2s-4.66-7.31-11.86-9.2c-4.27-1.12-10.25-1.64-18.82-1.64Z"/>
            <path class="cls-5" d="M370.75,1v86.54h36.33v14.17h-36.33v37.52c3.69,3.73,5.67,7.91,5.67,12.08,0,8.35-7.91,16.76-21.68,21.41-9.47,3.2-22.25,4.1-35.02,4.1s-25.54-.9-35.02-4.1c-13.77-4.65-21.68-13.06-21.68-21.41s7.91-16.76,21.68-21.41c9.48-3.2,22.25-4.1,35.02-4.1,9.97,0,19.94.55,28.35,2.32V1h22.68M319.73,162.66c6.79,0,13.83-.31,18.95-1.65,7.87-2.06,12.23-5.89,12.23-9.68s-4.37-7.63-12.23-9.68c-5.12-1.34-12.16-1.65-18.95-1.65s-13.91.25-19.03,1.58c-7.87,2.06-12.15,5.96-12.15,9.75s4.28,7.7,12.15,9.75c5.12,1.34,12.24,1.58,19.03,1.58M371.75,0h-24.68v126.91c-7.29-1.41-16.25-2.1-27.35-2.1-15.51,0-27.07,1.36-35.34,4.15-13.79,4.66-22.36,13.23-22.36,22.36s8.57,17.7,22.36,22.36c8.27,2.79,19.83,4.15,35.34,4.15s27.07-1.36,35.34-4.15c13.79-4.66,22.36-13.23,22.36-22.36,0-4.32-1.96-8.63-5.67-12.49v-36.11h36.33v-16.17h-36.33V0h0ZM319.73,161.66c-5.98,0-13.52-.18-18.78-1.55-6.93-1.81-11.41-5.26-11.41-8.79s4.48-6.97,11.41-8.79c5.26-1.38,12.79-1.55,18.77-1.55,8.53,0,14.47.52,18.7,1.62,6.98,1.83,11.49,5.25,11.49,8.72s-4.51,6.89-11.49,8.72c-4.23,1.11-10.17,1.62-18.7,1.62h0Z"/>
          </g>
        </g>
        <g>
          <g>
            <path class="cls-3" d="M378.25,134.82v-18.03l.52.02s.58.02,1.62.02c9.44,0,56.73-1.88,64.79-38.71h-115.63v-15.17h134.68l.05.44c.02.16.45,3.88,0,9.65-.12,1.54-.3,3.11-.52,4.65-3.11,21.33-18.29,57.12-85.02,57.12h-.5Z"/>
            <path class="cls-5" d="M463.79,63.45s.45,3.77,0,9.56c-.11,1.43-.28,2.97-.52,4.62-3.01,20.68-17.83,56.69-84.52,56.69v-17.01s.58.02,1.64.02c9.54,0,57.65-1.89,65.41-39.71h-115.74v-14.17h133.73M464.68,62.45h-135.62v16.17h115.5c-8.37,35.87-54.84,37.71-64.17,37.71-1.02,0-1.59-.02-1.6-.02l-1.04-.04v19.05h1c29.51,0,51.99-7.02,66.82-20.86,12.76-11.91,17.21-26.53,18.69-36.69.23-1.55.4-3.13.53-4.68.45-5.82.01-9.59,0-9.75l-.11-.88h0Z"/>
          </g>
          <g>
            <polygon class="cls-3" points="468.96 232.44 468.96 62.95 492.63 62.95 492.63 87.04 536.81 87.04 536.81 102.22 492.63 102.22 492.63 232.44 468.96 232.44"/>
            <path class="cls-5" d="M492.13,63.45v24.09h44.17v14.17h-44.17v130.22h-22.68V63.45h22.68M493.13,62.45h-24.68v170.49h24.68V102.72h44.17v-16.17h-44.17v-24.09h0Z"/>
          </g>
        </g>
        <g>
          <g>
            <polygon class="cls-3" points="227.6 148.99 227.6 62.95 251.28 62.95 251.28 87.04 265.45 87.04 265.45 102.22 251.28 102.22 251.28 148.99 227.6 148.99"/>
            <path class="cls-5" d="M250.78,63.45v24.09h14.17v14.17h-14.17v46.77h-22.68V63.45h22.68M251.78,62.45h-24.68v87.04h24.68v-46.77h14.17v-16.17h-14.17v-24.09h0Z"/>
          </g>
          <g>
            <path class="cls-3" d="M141.91,134.97c-2.8,0-4.53-.31-4.6-.32l-.41-.08v-15.09h.5c28.35,0,30.51-36.38,30.67-41.36h-31.17v-15.17h86.04v15.17h-31.17c.16,4.98,2.31,41.36,30.67,41.36h.5v15.09l-.41.08c-.07.01-1.8.32-4.6.32-4.84,0-12.14-.91-19.41-5.25-8.5-5.07-14.75-13.52-18.6-25.1-3.85,11.59-10.11,20.03-18.6,25.1-7.26,4.34-14.56,5.25-19.4,5.25h0Z"/>
            <path class="cls-5" d="M222.43,63.45v14.17h-31.18c.04,2.76,1.09,42.36,31.18,42.36v14.17s-1.73.31-4.51.31c-9.06,0-29.33-3.32-38-31.49-8.67,28.18-28.95,31.49-38.01,31.49-2.79,0-4.51-.31-4.51-.31v-14.17c30.09,0,31.14-39.6,31.18-42.36h-31.18v-14.17h85.04M223.43,62.45h-87.04v16.17h31.15c-.13,3.1-.79,12.13-4.22,20.85-5.09,12.95-13.82,19.51-25.93,19.51h-1v16.01l.82.15c.07.01,1.85.33,4.69.33,4.91,0,12.3-.92,19.66-5.32,8.26-4.93,14.42-13,18.34-24,3.92,11,10.08,19.06,18.34,24,7.36,4.4,14.76,5.32,19.66,5.32,2.85,0,4.62-.32,4.69-.33l.82-.15v-16.01h-1c-12.12,0-20.84-6.56-25.93-19.51-3.43-8.72-4.09-17.75-4.22-20.85h31.15v-16.17h0Z"/>
          </g>
        </g>
      </g>
      <g>
        <polygon class="cls-1" points="87.54 106.72 101.71 106.72 101.71 300.1 124.39 300.1 124.39 68.45 101.71 68.45 101.71 92.55 87.54 92.55 87.54 106.72"/>
        <polygon class="cls-1" points="16.68 130.82 16.68 167.67 16.68 181.84 39.35 181.84 314.72 181.84 314.72 167.67 39.35 167.67 39.35 130.82 16.68 130.82"/>
        <path class="cls-1" d="M53.53,96.8v-.07c8.5,31.18,42.52,28.35,42.52,28.35v-14.17c-33.14,0-31.3-26.89-31.19-28.28h31.19v-14.17H11.01v14.17h31.18s2.83,28.35-31.18,28.35v14.17s34.02,2.83,42.52-28.35Z"/>
        <g>
          <path class="cls-1" d="M294.88,93.97c11.34,36.85,42.52,31.18,42.52,31.18v-14.17c-31.18,0-31.18-42.52-31.18-42.52h-22.68s0,42.52-31.18,42.52v14.17s31.18,5.67,42.52-31.18Z"/>
          <path class="cls-1" d="M365.75,6h-22.68v127.13c-8.41-1.77-18.38-2.32-28.35-2.32-12.76,0-25.54.9-35.02,4.1-13.77,4.65-21.68,13.06-21.68,21.41s7.91,16.76,21.68,21.41c9.48,3.2,22.25,4.1,35.02,4.1s25.54-.9,35.02-4.1c13.77-4.65,21.68-13.06,21.68-21.41,0-4.17-1.98-8.36-5.67-12.08v-37.52h36.33v-14.17h-36.33V6ZM333.67,166.01c-5.12,1.34-12.16,1.65-18.95,1.65s-13.91-.25-19.03-1.58c-7.87-2.06-12.15-5.96-12.15-9.75s4.28-7.7,12.15-9.75c5.12-1.34,12.24-1.58,19.03-1.58s13.83.32,18.95,1.65c7.87,2.06,12.23,5.89,12.23,9.68s-4.36,7.63-12.23,9.68Z"/>
        </g>
        <g>
          <path class="cls-1" d="M441.78,68.45h-116.72v14.17h115.74c-8.62,42.02-67.05,39.69-67.05,39.69v17.01c66.69,0,81.51-36.01,84.52-56.69.24-1.65.41-3.19.52-4.62.45-5.79,0-9.56,0-9.56h-17.01Z"/>
          <polygon class="cls-1" points="487.13 68.45 464.45 68.45 464.45 236.94 487.13 236.94 487.13 106.72 531.31 106.72 531.31 92.55 487.13 92.55 487.13 68.45"/>
        </g>
        <g>
          <polygon class="cls-1" points="245.78 92.55 245.78 68.45 223.1 68.45 223.1 153.49 245.78 153.49 245.78 106.72 259.95 106.72 259.95 92.55 245.78 92.55"/>
          <path class="cls-1" d="M174.91,107.98c11.34,36.85,42.52,31.18,42.52,31.18v-14.17c-30.09,0-31.14-39.6-31.18-42.36h31.18v-14.17h-85.04v14.17h31.18c-.04,2.76-1.09,42.36-31.18,42.36v14.17s31.18,5.67,42.52-31.18Z"/>
        </g>
      </g>
      <g>
        <polygon class="cls-2" points="82.54 111.72 96.71 111.72 96.71 305.11 119.39 305.11 119.39 73.46 96.71 73.46 96.71 97.55 82.54 97.55 82.54 111.72"/>
        <polygon class="cls-2" points="11.67 135.82 11.67 172.67 11.67 186.84 34.35 186.84 309.72 186.84 309.72 172.67 34.35 172.67 34.35 135.82 11.67 135.82"/>
        <path class="cls-2" d="M48.52,101.8v-.07c8.5,31.18,42.52,28.35,42.52,28.35v-14.17c-33.14,0-31.3-26.89-31.19-28.28h31.19v-14.17H6v14.17h31.18s2.83,28.35-31.18,28.35v14.17s34.02,2.83,42.52-28.35Z"/>
        <g>
          <path class="cls-2" d="M289.88,98.97c11.34,36.85,42.52,31.18,42.52,31.18v-14.17c-31.18,0-31.18-42.52-31.18-42.52h-22.68s0,42.52-31.18,42.52v14.17s31.18,5.67,42.52-31.18Z"/>
          <path class="cls-2" d="M360.74,11.01h-22.68v127.13c-8.41-1.77-18.38-2.32-28.35-2.32-12.76,0-25.54.9-35.02,4.1-13.77,4.65-21.68,13.06-21.68,21.41s7.91,16.76,21.68,21.41c9.48,3.2,22.25,4.1,35.02,4.1s25.54-.9,35.02-4.1c13.77-4.65,21.68-13.06,21.68-21.41,0-4.17-1.98-8.36-5.67-12.08v-37.52h36.33v-14.17h-36.33V11.01ZM328.67,171.02c-5.12,1.34-12.16,1.65-18.95,1.65s-13.91-.25-19.03-1.58c-7.87-2.06-12.15-5.96-12.15-9.75s4.28-7.7,12.15-9.75c5.12-1.34,12.24-1.58,19.03-1.58s13.83.32,18.95,1.65c7.87,2.06,12.23,5.89,12.23,9.68s-4.36,7.63-12.23,9.68Z"/>
        </g>
        <g>
          <path class="cls-2" d="M436.77,73.46h-116.72v14.17h115.74c-8.62,42.02-67.05,39.69-67.05,39.69v17.01c66.69,0,81.51-36.01,84.52-56.69.24-1.65.41-3.19.52-4.62.45-5.79,0-9.56,0-9.56h-17.01Z"/>
          <polygon class="cls-2" points="482.13 73.46 459.45 73.46 459.45 241.94 482.13 241.94 482.13 111.72 526.3 111.72 526.3 97.55 482.13 97.55 482.13 73.46"/>
        </g>
        <g>
          <polygon class="cls-2" points="240.77 97.55 240.77 73.46 218.1 73.46 218.1 158.5 240.77 158.5 240.77 111.72 254.95 111.72 254.95 97.55 240.77 97.55"/>
          <path class="cls-2" d="M169.91,112.99c11.34,36.85,42.52,31.18,42.52,31.18v-14.17c-30.09,0-31.14-39.6-31.18-42.36h31.18v-14.17h-85.04v14.17h31.18c-.04,2.76-1.09,42.36-31.18,42.36v14.17s31.18,5.67,42.52-31.18Z"/>
        </g>
      </g>
      <g>
        <g>
          <polygon class="cls-4" points="91.21 310.61 91.21 117.23 77.04 117.23 77.04 102.05 91.21 102.05 91.21 77.96 114.89 77.96 114.89 310.61 91.21 310.61"/>
          <path class="cls-5" d="M114.39,78.46v231.65h-22.68V116.73h-14.17v-14.17h14.17v-24.09h22.68M115.39,77.46h-24.68v24.09h-14.17v16.17h14.17v193.38h24.68V77.46h0Z"/>
        </g>
        <g>
          <polygon class="cls-4" points="6.17 192.35 6.17 140.32 29.85 140.32 29.85 177.17 305.22 177.17 305.22 192.35 6.17 192.35"/>
          <path class="cls-5" d="M29.35,140.82v36.85h275.37v14.17H6.67v-51.02h22.68M30.35,139.82H5.67v53.02h300.05v-16.17H30.35v-36.85h0Z"/>
        </g>
        <g>
          <path class="cls-4" d="M3.2,135.72c-1.4,0-2.21-.07-2.24-.07l-.46-.04v-15.13h.5c10.93,0,19.13-2.94,24.39-8.75,6.44-7.11,6.42-16.45,6.32-18.6H.5v-15.17h86.04v15.17h-31.22c-.12,2.34-.12,11.53,6.43,18.65,5.26,5.73,13.44,8.63,24.29,8.63h.5v15.13l-.46.04s-.84.07-2.24.07c-7.56,0-32.42-1.99-40.31-27.1-7.86,25.18-32.76,27.17-40.33,27.17,0,0,0,0,0,0Z"/>
          <path class="cls-5" d="M86.04,78.46v14.17h-31.19c-.12,1.39-1.95,28.28,31.19,28.28v14.17s-.8.07-2.2.07c-7.67,0-33.13-2.03-40.32-28.41v.07c-7.2,26.39-32.66,28.41-40.32,28.41-1.39,0-2.2-.07-2.2-.07v-14.17c34.02,0,31.18-28.35,31.18-28.35H1v-14.17h85.04M87.04,77.46H0v16.17h31.23c.06,2.75-.29,11.23-6.21,17.77-5.16,5.69-13.24,8.58-24.02,8.58H0v16.09l.92.08s.86.07,2.28.07c7.51,0,31.89-1.94,40.33-26.08,8.47,24.07,32.8,26.01,40.31,26.01,1.42,0,2.25-.07,2.28-.07l.92-.08v-16.09h-1c-10.71,0-18.75-2.85-23.92-8.47-5.98-6.51-6.36-15.02-6.31-17.81h31.23v-16.17h0Z"/>
        </g>
        <g>
          <g>
            <path class="cls-4" d="M322.88,135.97c-4.84,0-12.14-.91-19.41-5.25-8.5-5.07-14.75-13.52-18.6-25.1-3.85,11.59-10.11,20.03-18.6,25.1-7.26,4.34-14.56,5.25-19.4,5.25h0c-2.8,0-4.53-.31-4.6-.32l-.41-.08v-15.09h.5c30.32,0,30.68-41.6,30.68-42.02v-.5h23.68v.5c0,.42.36,42.02,30.68,42.02h.5v15.09l-.41.08c-.07.01-1.8.32-4.6.32Z"/>
            <path class="cls-5" d="M296.21,78.46s0,42.52,31.18,42.52v14.17s-1.73.31-4.51.31c-9.06,0-29.33-3.32-38-31.5-8.67,28.18-28.94,31.5-38,31.5-2.79,0-4.51-.31-4.51-.31v-14.17c31.18,0,31.18-42.52,31.18-42.52h22.68M296.21,77.46h-23.68v1c0,.1-.05,10.62-3.85,20.96-5.02,13.64-13.87,20.56-26.33,20.56h-1v16.01l.82.15c.07.01,1.85.33,4.69.33,4.9,0,12.3-.92,19.66-5.32,8.26-4.93,14.42-13,18.34-24,3.92,11,10.08,19.06,18.34,24,7.36,4.4,14.76,5.32,19.66,5.32,2.85,0,4.62-.32,4.69-.33l.82-.15v-16.01h-1c-12.45,0-21.31-6.92-26.33-20.56-3.8-10.34-3.85-20.86-3.85-20.96v-1s-1,0-1,0h0Z"/>
          </g>
          <g>
            <path class="cls-4" d="M304.72,192.35c-15.46,0-26.96-1.35-35.18-4.13-13.58-4.59-22.02-12.98-22.02-21.88s8.44-17.29,22.02-21.88c8.21-2.78,19.72-4.13,35.18-4.13,11.37,0,20.49.72,27.85,2.21V15.51h23.68v86.54h36.33v15.17h-36.33v36.82c3.71,3.8,5.67,8.04,5.67,12.29,0,8.91-8.44,17.29-22.02,21.88-8.21,2.78-19.72,4.13-35.18,4.13ZM304.72,155.5c-6.01,0-13.59.18-18.9,1.57-7.16,1.87-11.78,5.51-11.78,9.27s4.62,7.4,11.78,9.27c5.31,1.39,12.89,1.57,18.9,1.57,8.57,0,14.55-.52,18.82-1.64,7.2-1.88,11.86-5.5,11.86-9.2s-4.66-7.32-11.86-9.2c-4.27-1.12-10.25-1.64-18.82-1.64Z"/>
            <path class="cls-5" d="M355.74,16.01v86.55h36.33v14.17h-36.33v37.52c3.69,3.73,5.67,7.91,5.67,12.08,0,8.35-7.91,16.76-21.68,21.41-9.48,3.2-22.25,4.1-35.02,4.1s-25.54-.9-35.02-4.1c-13.77-4.65-21.68-13.06-21.68-21.41s7.91-16.76,21.68-21.41c9.48-3.2,22.25-4.1,35.02-4.1,9.97,0,19.94.55,28.35,2.32V16.01h22.68M304.72,177.67c6.79,0,13.83-.32,18.95-1.65,7.87-2.06,12.23-5.89,12.23-9.68s-4.36-7.63-12.23-9.68c-5.12-1.34-12.16-1.65-18.95-1.65s-13.91.25-19.03,1.58c-7.87,2.06-12.15,5.96-12.15,9.75s4.29,7.7,12.15,9.75c5.12,1.34,12.24,1.58,19.03,1.58M356.74,15.01h-24.68v126.91c-7.29-1.41-16.25-2.1-27.35-2.1-15.51,0-27.07,1.36-35.34,4.15-13.79,4.66-22.36,13.23-22.36,22.36s8.57,17.7,22.36,22.36c8.27,2.79,19.83,4.15,35.34,4.15s27.07-1.36,35.34-4.15c13.79-4.66,22.36-13.23,22.36-22.36,0-4.32-1.96-8.63-5.67-12.49v-36.12h36.33v-16.17h-36.33V15.01h0ZM304.72,176.67c-5.98,0-13.52-.18-18.78-1.55-6.93-1.81-11.41-5.26-11.41-8.79s4.48-6.97,11.41-8.79c5.26-1.38,12.8-1.55,18.78-1.55,8.53,0,14.47.52,18.7,1.62,6.98,1.83,11.49,5.25,11.49,8.72s-4.51,6.89-11.49,8.72c-4.23,1.11-10.17,1.62-18.7,1.62h0Z"/>
          </g>
        </g>
        <g>
          <g>
            <path class="cls-4" d="M363.24,149.83v-18.03l.52.02s.58.02,1.62.02c9.44,0,56.73-1.88,64.79-38.71h-115.63v-15.17h134.68l.05.44c.02.16.45,3.88,0,9.65-.12,1.52-.29,3.09-.52,4.65-3.11,21.33-18.29,57.12-85.02,57.12h-.5Z"/>
            <path class="cls-5" d="M448.78,78.46s.45,3.77,0,9.56c-.11,1.42-.28,2.97-.52,4.62-3.01,20.68-17.83,56.69-84.52,56.69v-17.01s.58.02,1.64.02c9.54,0,57.65-1.89,65.41-39.71h-115.74v-14.17h133.73M449.67,77.46h-135.62v16.17h115.5c-8.37,35.87-54.84,37.71-64.17,37.71-1.02,0-1.59-.02-1.6-.02l-1.04-.04v19.05h1c29.51,0,51.99-7.02,66.82-20.86,12.76-11.91,17.21-26.53,18.69-36.69.23-1.57.41-3.15.52-4.68.45-5.82.01-9.59,0-9.75l-.11-.88h0Z"/>
          </g>
          <g>
            <polygon class="cls-4" points="453.95 247.45 453.95 77.96 477.63 77.96 477.63 102.05 521.8 102.05 521.8 117.23 477.63 117.23 477.63 247.45 453.95 247.45"/>
            <path class="cls-5" d="M477.13,78.46v24.09h44.17v14.17h-44.17v130.22h-22.68V78.46h22.68M478.13,77.46h-24.68v170.49h24.68V117.73h44.17v-16.17h-44.17v-24.09h0Z"/>
          </g>
        </g>
        <g>
          <g>
            <polygon class="cls-4" points="212.59 164 212.59 77.96 236.27 77.96 236.27 102.05 250.44 102.05 250.44 117.23 236.27 117.23 236.27 164 212.59 164"/>
            <path class="cls-5" d="M235.77,78.46v24.09h14.17v14.17h-14.17v46.77h-22.68v-85.04h22.68M236.77,77.46h-24.68v87.04h24.68v-46.77h14.17v-16.17h-14.17v-24.09h0Z"/>
          </g>
          <g>
            <path class="cls-4" d="M202.91,149.98c-4.84,0-12.14-.91-19.41-5.25-8.5-5.07-14.75-13.52-18.6-25.1-3.85,11.59-10.1,20.03-18.6,25.1-7.27,4.34-14.56,5.25-19.4,5.25h0c-2.8,0-4.53-.31-4.6-.32l-.41-.08v-15.09h.5c28.34,0,30.5-36.38,30.67-41.36h-31.17v-15.17h86.04v15.17h-31.17c.16,4.98,2.33,41.36,30.67,41.36h.5v15.09l-.41.08c-.07.01-1.8.32-4.6.32Z"/>
            <path class="cls-5" d="M207.42,78.46v14.17h-31.18c.04,2.77,1.09,42.36,31.18,42.36v14.17s-1.73.31-4.51.31c-9.06,0-29.33-3.32-38.01-31.5-8.67,28.18-28.95,31.5-38.01,31.5-2.79,0-4.51-.31-4.51-.31v-14.17c30.09,0,31.14-39.6,31.18-42.36h-31.18v-14.17h85.04M208.42,77.46h-87.04v16.17h31.15c-.13,3.1-.79,12.14-4.22,20.85-5.09,12.95-13.81,19.51-25.93,19.51h-1v16.01l.82.15c.07.01,1.85.33,4.69.33,4.91,0,12.3-.92,19.66-5.32,8.26-4.93,14.42-13,18.34-24,3.92,11,10.08,19.06,18.34,24,7.36,4.4,14.76,5.32,19.66,5.32,2.84,0,4.62-.32,4.69-.33l.82-.15v-16.01h-1c-12.12,0-20.84-6.56-25.93-19.51-3.43-8.71-4.09-17.75-4.22-20.85h31.15v-16.17h0Z"/>
          </g>
        </g>
      </g>
    </g>
  </g>
</svg>