<?xml version="1.0" encoding="UTF-8"?>
<svg id="Layer_2" data-name="Layer 2" xmlns="http://www.w3.org/2000/svg" viewBox="0 0 520.3 294.1">
  <defs>
    <style>
      .cls-1 {
        fill: #ddd;
      }
    </style>
  </defs>
  <g id="Layer_1-2" data-name="Layer 1">
    <g>
      <path class="cls-1" d="M42.52,90.8v-.07c8.5,31.18,42.52,28.35,42.52,28.35v-14.17c-33.14,0-31.3-26.89-31.19-28.28h31.19v-14.17H0v14.17h31.18s2.83,28.35-31.18,28.35v14.17s34.02,2.83,42.52-28.35Z"/>
      <path class="cls-1" d="M241.35,119.14s31.18,5.67,42.52-31.18c11.34,36.85,42.52,31.18,42.52,31.18v-14.17c-31.18,0-31.18-42.52-31.18-42.52h-22.68s0,42.52-31.18,42.52v14.17Z"/>
      <path class="cls-1" d="M430.77,62.45h-76.03V0h-22.68v62.45h-18.01v14.17h18.01v50.51c-8.41-1.77-18.38-2.32-28.35-2.32-12.76,0-25.54.9-35.02,4.1-13.77,4.65-21.68,13.06-21.68,21.41,0,3.9,1.74,7.8,4.98,11.34H113.39V62.45h-22.68v24.09h-14.17v14.17h14.17v60.94H28.35v-36.85H5.67v51.02h85.04v118.26h22.68v-118.26h190.33c12.76,0,25.54-.9,35.02-4.1,13.77-4.65,21.68-13.06,21.68-21.41,0-4.17-1.97-8.36-5.67-12.08v-37.52h36.33v-14.17h-36.33v-9.92h75.05c-8.62,42.02-67.05,39.68-67.05,39.68v17.01c66.69,0,81.51-36.01,84.52-56.69.24-1.65.41-3.19.52-4.62.45-5.79,0-9.56,0-9.56h-17.01ZM322.67,160.01c-5.12,1.34-12.16,1.65-18.95,1.65s-13.91-.25-19.03-1.58c-7.87-2.06-12.15-5.96-12.15-9.75s4.29-7.7,12.15-9.75c5.12-1.34,12.24-1.58,19.03-1.58s13.83.32,18.95,1.65c7.87,2.06,12.23,5.89,12.23,9.68s-4.36,7.63-12.23,9.68Z"/>
      <polygon class="cls-1" points="476.13 86.54 476.13 62.45 453.45 62.45 453.45 230.94 476.13 230.94 476.13 100.72 520.3 100.72 520.3 86.54 476.13 86.54"/>
      <polygon class="cls-1" points="234.77 100.72 248.94 100.72 248.94 86.54 234.77 86.54 234.77 62.45 212.09 62.45 212.09 147.49 234.77 147.49 234.77 100.72"/>
      <path class="cls-1" d="M163.91,101.98c11.34,36.85,42.52,31.18,42.52,31.18v-14.17c-30.09,0-31.14-39.6-31.18-42.36h31.18v-14.17h-85.04v14.17h31.18c-.04,2.76-1.09,42.36-31.18,42.36v14.17s31.18,5.67,42.52-31.18Z"/>
    </g>
  </g>
</svg>